# xmcd
#
# Track frame offsets:
#	150
#	11019
#	19536
#	33208
#	42122
#	55376
#	72881
#	80314
#	96589
#	111498
#	126979
#	131771
#	147277
#	158707
#	176122
#
# Disc length: 2532 seconds
#
# Revision: 1
# Processed by: cddbd v1.5.2PL0 Copyright (c) Steve Scherf et al.
# Submitted via: EasyCDDAExtractor 10.0.2.1
#
DISCID=cf09e20f
DTITLE=Les Cosaques
DYEAR=2002
DGENRE=Russe
TTITLE0=Pri Loujkou
TTITLE1=Ataman Platoff
TTITLE2=Maroussia
TTITLE3=Rebiata
TTITLE4=Galia
TTITLE5=Stenka Razin
TTITLE6=Accordéon de la Volga
TTITLE7=Sur le Don
TTITLE8=Les Yeux Noirs
TTITLE9=L'accordéon Solitaire
TTITLE10=Le Bouleau
TTITLE11=Cocher ralenti tes chevaux
TTITLE12=Plaine ma plaine
TTITLE13=Petites variations instrumentales
TTITLE14=Kalinka
EXTD=
EXTT0=
EXTT1=
EXTT2=
EXTT3=
EXTT4=
EXTT5=
EXTT6=
EXTT7=
EXTT8=
EXTT9=
EXTT10=
EXTT11=
EXTT12=
EXTT13=
EXTT14=
PLAYORDER=
